<svg xmlns="http://www.w3.org/2000/svg" width="512" height="512" viewBox="0 0 512 512">
<g>
<path d="M 486.01 213.24 C500.03,231.24 511.61,245.98 511.75,245.99 C511.89,245.99 512.00,190.65 512.00,123.00 L 512.00 247.51 L 481.21 278.29 L 450.42 309.07 L 436.25 290.29 C428.46,279.95 420.74,269.92 419.09,268.00 L 416.08 264.50 L 416.04 388.25 L 416.00 512.00 L 0.00 512.00 L 8.75 511.96 C16.84,511.92 17.27,511.82 14.50,510.61 C9.42,508.39 4.82,503.82 2.37,498.54 L 0.02 493.50 L 0.00 512.00 L 0.00 0.00 L 512.00 0.00 L 402.75 0.12 C337.02,0.20 295.86,0.59 299.42,1.11 C311.58,2.88 324.03,11.14 331.06,22.10 C340.06,36.12 340.39,55.68 331.88,70.67 C328.13,77.27 318.68,86.03 311.52,89.53 L 305.95 92.26 L 306.22 106.80 L 306.50 121.34 L 332.00 129.64 L 357.50 137.95 L 392.50 137.98 L 427.50 138.00 L 444.01 159.25 C453.09,170.94 471.99,195.23 486.01,213.24 ZM 274.50 510.61 C271.90,511.75 274.32,511.93 292.61,511.96 L 313.72 512.00 L 315.86 505.48 C321.09,489.53 317.03,468.78 306.35,456.96 L 302.77 453.00 L 306.35 449.04 C313.87,440.71 318.00,429.00 318.00,416.00 C318.00,401.43 313.09,389.38 303.14,379.55 C296.21,372.71 291.46,369.70 283.00,366.79 C276.63,364.60 275.39,364.55 221.26,364.22 L 166.02 363.89 L 165.76 314.44 L 165.50 264.99 L 132.53 309.02 L 101.76 278.26 C84.83,261.34 71.17,247.01 71.40,246.40 C71.63,245.80 90.62,221.16 113.61,191.65 L 155.40 138.00 L 225.50 138.00 L 250.75 129.80 L 276.00 121.60 L 276.00 64.00 L 285.60 64.00 C292.43,64.00 296.20,63.53 298.66,62.36 C309.74,57.10 311.28,40.07 301.27,33.39 C291.53,26.88 278.03,31.73 275.05,42.81 L 273.92 47.00 L 244.13 47.00 L 244.62 43.25 C246.33,30.36 250.59,21.61 259.08,13.50 C265.68,7.21 274.79,2.50 283.00,1.14 C286.44,0.57 234.52,0.19 144.25,0.12 L 0.00 0.00 L 0.04 206.75 C0.08,380.42 0.30,412.90 1.42,409.76 C4.17,402.06 9.30,397.07 16.50,395.10 C22.11,393.57 266.35,393.56 272.44,395.09 C274.81,395.69 278.45,397.57 280.51,399.27 C293.23,409.76 288.87,432.48 273.27,437.00 C270.61,437.77 232.03,438.00 142.34,437.80 L 15.17 437.50 L 10.93 434.50 C5.86,430.92 3.38,427.75 1.49,422.44 C0.24,418.92 0.09,422.20 0.12,453.00 C0.15,480.91 0.38,486.78 1.33,483.73 C2.93,478.56 7.26,473.44 12.29,470.75 L 16.50 468.50 L 141.50 468.19 C228.81,467.98 268.02,468.21 271.56,468.97 C281.48,471.10 287.96,479.41 287.96,490.00 C287.96,499.26 282.96,506.92 274.50,510.61 ZM 269.21 198.11 C281.36,214.60 291.64,227.74 292.05,227.30 C292.46,226.86 303.22,212.32 315.95,195.00 L 339.11 163.50 L 315.40 155.78 L 291.70 148.05 L 267.88 155.75 L 244.06 163.44 L 245.59 165.78 C246.43,167.07 257.06,181.61 269.21,198.11 Z" fill="rgb(0,0,0)"/>
<path d="M 3.06 426.08 C2.53,425.28 1.95,424.38 1.31,423.37 C0.50,422.09 0.19,426.80 0.12,444.53 C0.13,421.61 0.36,419.28 1.49,422.44 C1.97,423.78 2.48,424.98 3.06,426.08 ZM 304.65 0.75 C301.49,1.01 302.29,1.38 304.00,1.93 C317.02,6.06 326.91,14.11 332.58,24.66 C332.10,23.79 331.60,22.93 331.06,22.10 C324.03,11.14 311.58,2.88 299.42,1.11 C298.54,0.98 300.38,0.86 304.65,0.75 ZM 258.15 14.41 C264.11,8.34 270.96,4.32 279.50,1.87 C281.04,1.42 281.76,1.09 279.36,0.85 C282.39,0.94 283.63,1.04 283.00,1.14 C274.79,2.50 265.68,7.21 259.08,13.50 C258.77,13.80 258.46,14.11 258.15,14.41 ZM 0.75 484.16 L 2.05 481.56 C4.28,477.08 6.81,474.16 10.63,471.74 C6.33,474.59 2.75,479.14 1.33,483.73 C1.09,484.48 0.90,484.69 0.75,484.16 ZM 1.11 409.54 L 2.52 406.85 C2.98,405.96 3.50,405.10 4.06,404.28 C3.02,405.92 2.14,407.74 1.42,409.76 C1.31,410.07 1.21,410.03 1.11,409.54 ZM 337.73 52.47 C337.15,58.15 335.66,63.33 333.22,68.11 C335.62,63.20 337.11,57.87 337.73,52.47 ZM 252.00 21.85 C248.06,27.83 245.77,34.61 244.62,43.25 C245.80,34.35 247.97,27.85 252.00,21.85 ZM 328.04 76.00 C326.55,77.84 324.87,79.61 323.02,81.32 C321.90,82.36 320.55,83.48 319.14,84.56 C322.36,82.01 325.51,78.98 328.04,76.00 ZM 0.00 0.00 L 0.05 241.17 C0.05,230.36 0.05,218.90 0.04,206.75 ZM 10.93 434.50 L 15.17 437.50 L 10.85 434.46 C9.47,433.49 8.41,432.67 7.42,431.70 C8.44,432.64 9.59,433.55 10.93,434.50 ZM 14.66 395.69 C15.26,395.46 15.86,395.27 16.46,395.11 C15.85,395.28 15.25,395.48 14.66,395.69 Z" fill="rgb(82,82,82)"/>
<path d="M 0.02 493.50 L 2.37 498.54 C3.83,501.69 6.06,504.58 8.69,506.88 C6.27,504.82 4.18,502.32 2.94,499.87 C1.85,497.74 0.74,496.00 0.48,496.00 C0.25,496.00 0.06,498.74 0.01,502.36 ZM 279.14 1.97 C276.03,2.89 273.15,4.01 270.45,5.37 C273.97,3.37 277.17,2.00 278.88,1.98 C278.96,1.98 279.05,1.98 279.14,1.97 Z" fill="rgb(181,181,181)"/>
<path d="M 0.00 504.00 C0.00,499.60 0.22,496.00 0.48,496.00 C0.74,496.00 1.85,497.74 2.94,499.87 C5.12,504.16 9.91,508.60 14.50,510.61 C17.27,511.82 16.84,511.92 8.75,511.96 L 0.00 512.00 L 0.00 504.00 ZM 274.50 510.61 C282.96,506.92 287.96,499.26 287.96,490.00 C287.96,479.41 281.48,471.10 271.56,468.97 C268.02,468.21 228.81,467.98 141.50,468.19 L 16.50 468.50 L 12.50 470.65 C7.60,473.29 4.62,476.39 2.05,481.56 L 0.08 485.50 L 0.10 453.50 C0.11,428.36 0.37,421.90 1.31,423.37 C5.67,430.21 6.98,431.75 10.85,434.46 L 15.17 437.50 L 142.34 437.80 C232.03,438.00 270.61,437.77 273.27,437.00 C288.87,432.48 293.23,409.76 280.51,399.27 C278.45,397.57 274.81,395.69 272.44,395.09 C266.37,393.56 22.63,393.56 16.56,395.09 C10.95,396.50 5.55,401.02 2.52,406.85 L 0.09 411.50 L 0.05 205.75 L 0.00 0.00 L 141.75 0.02 C233.64,0.03 282.97,0.37 282.00,1.00 C281.17,1.53 279.77,1.98 278.88,1.98 C274.95,2.02 263.10,9.21 257.78,14.79 C249.81,23.14 246.27,30.80 244.62,43.25 L 244.13 47.00 L 259.02 47.00 L 273.92 47.00 L 275.05 42.81 C278.03,31.73 291.53,26.88 301.27,33.39 C311.28,40.07 309.74,57.10 298.66,62.36 C296.20,63.53 292.43,64.00 285.60,64.00 L 276.00 64.00 L 276.00 92.80 L 276.00 121.60 L 250.75 129.80 L 225.50 138.00 L 190.45 138.00 L 155.40 138.00 L 113.61 191.65 C90.62,221.16 71.63,245.80 71.40,246.40 C71.17,247.01 84.83,261.34 101.76,278.26 L 132.53 309.02 L 149.02 287.01 L 165.50 264.99 L 165.76 314.44 L 166.02 363.89 L 221.26 364.22 C275.39,364.55 276.63,364.60 283.00,366.79 C291.46,369.70 296.21,372.71 303.14,379.55 C313.09,389.38 318.00,401.43 318.00,416.00 C318.00,429.00 313.87,440.71 306.35,449.04 L 302.77 453.00 L 306.35 456.96 C317.03,468.78 321.09,489.53 315.86,505.48 L 313.72 512.00 L 292.61 511.96 C274.32,511.93 271.90,511.75 274.50,510.61 ZM 416.04 388.25 L 416.08 264.50 L 419.09 268.00 C420.74,269.92 428.46,279.95 436.25,290.29 L 450.42 309.07 L 481.21 278.29 L 512.00 247.51 L 512.00 379.76 L 512.00 512.00 L 464.00 512.00 L 416.00 512.00 L 416.04 388.25 ZM 486.01 213.24 C471.99,195.23 453.09,170.94 444.01,159.25 L 427.50 138.00 L 392.50 137.98 L 357.50 137.95 L 332.00 129.64 L 306.50 121.34 L 306.22 106.80 L 305.95 92.26 L 311.52 89.53 C314.59,88.03 319.76,84.34 323.02,81.32 C333.16,71.93 338.00,60.81 338.00,46.91 C338.00,25.66 325.13,8.63 304.00,1.93 C298.69,0.24 302.19,0.18 405.25,0.09 L 512.00 0.00 L 512.00 123.00 C512.00,190.65 511.89,245.99 511.75,245.99 C511.61,245.98 500.03,231.24 486.01,213.24 ZM 269.21 198.11 C257.06,181.61 246.43,167.07 245.59,165.78 L 244.06 163.44 L 267.88 155.75 L 291.70 148.05 L 315.40 155.78 L 339.11 163.50 L 315.95 195.00 C303.22,212.32 292.46,226.86 292.05,227.30 C291.64,227.74 281.36,214.60 269.21,198.11 Z" fill="rgb(254,254,254)"/>
</g>
</svg>
